# xmcd
#
# Track frame offsets:
#	150
#	25885
#	50658
#	74493
#	92598
#	107352
#	139912
#	158983
#	196850
#	229462
#	243333
#	259927
#	286069
#
# Disc length: 4265 seconds
# Revision: 0
# Processed by: cddbd v1.5.2PL0 Copyright (c) Steve Scherf et al.
# Submitted via: dBpowerAMP V12.0
#
DISCID=b710a70d
DTITLE=Hans Knudsen og Christian Bundgaard - Two Generations
DYEAR=2016
DGENRE=New Orleans
TTITLE0=Let The Good Times Roll
TTITLE1=Ain't Nobody's Business
TTITLE2=Baby Blue
TTITLE3=Hello Josephine/Dangerous Man
TTITLE4=The Things That I Used To Do
TTITLE5=Such A Night
TTITLE6=New Orleans
TTITLE7=Iko Iko
TTITLE8=Marie Laveau
TTITLE9=Cherry Red
TTITLE10=Do You Know What It Means To Miss New Orleans
TTITLE11=Get Out Of My Life Woman/A Certain Girl
TTITLE12=Charlie Scott's Boogie
EXTD=
EXTT0=
EXTT1=
EXTT2=
EXTT3=
EXTT4=
EXTT5=
EXTT6=
EXTT7=
EXTT8=
EXTT9=
EXTT10=
EXTT11=
EXTT12=
PLAYORDER=
